<?xml version="1.0" encoding="UTF-8" standalone="no"?>
<!DOCTYPE svg PUBLIC "-//W3C//DTD SVG 20010904//EN" "http://www.w3.org/TR/2001/REC-SVG-20010904/DTD/svg10.dtd">
<svg version="1.0" xmlns="http://www.w3.org/2000/svg" width="300.000000pt" height="300.000000pt" viewBox="0 0 300.000000 300.000000" preserveAspectRatio="xMidYMid meet">
<metadata>
Created by potrace 1.10, written by Peter Selinger 2001-2011
</metadata>
<g transform="translate(0.000000,300.000000) scale(0.100000,-0.100000)" fill="#000000" stroke="none">
<path d="M1335 2981 c-51 -23 -76 -51 -113 -126 -26 -52 -49 -101 -127 -280 -125 -286 -523 -1091 -611 -1235 -8 -14 -22 -41 -31 -60 -40 -91 33 -205 131 -205 53 0 97 31 159 113 136 178 420 706 587 1089 34 78 68 147 75 153 35 29 64 -9 219 -280 165 -288 231 -397 488 -802 173 -272 206 -318 231 -318 61 0 147 182 147 313 0 46 -14 84 -50 137 -37 54 -112 172 -210 335 -57 94 -113 186 -125 205 -12 19 -41 65 -63 103 -23 37 -59 95 -81 130 -21 34 -87 141 -146 237 -60 96 -116 186 -125 200 -10 14 -42 63 -72 110 -69 106 -137 176 -186 190 -48 13 -50 13 -97 -9z"/>
<path d="M1541 1689 c-65 -13 -141 -39 -181 -62 -45 -26 -118 -95 -135 -127 -9 -17 -16 -124 -24 -350 -6 -179 -19 -461 -27 -628 -9 -167 -13 -318 -10 -337 18 -93 120 -148 316 -170 108 -13 219 35 277 117 33 49 34 58 15 528 -11 282 -29 873 -29 947 1 75 -77 107 -202 82z"/>
</g>
</svg>