<?xml version="1.0" encoding="UTF-8" standalone="no"?>
<!DOCTYPE svg PUBLIC "-//W3C//DTD SVG 20010904//EN" "http://www.w3.org/TR/2001/REC-SVG-20010904/DTD/svg10.dtd">
<svg version="1.0" xmlns="http://www.w3.org/2000/svg" width="300.000000pt" height="300.000000pt" viewBox="0 0 300.000000 300.000000" preserveAspectRatio="xMidYMid meet">
<metadata>
Created by potrace 1.10, written by Peter Selinger 2001-2011
</metadata>
<g transform="translate(0.000000,300.000000) scale(0.100000,-0.100000)" fill="#000000" stroke="none">
<path d="M1165 2379 c-93 -23 -158 -101 -158 -193 0 -56 26 -118 65 -152 44 -40 333 -153 658 -258 327 -106 444 -149 424 -156 -15 -6 -12 -9 19 -19 20 -7 42 -22 48 -33 22 -40 -49 -86 -296 -193 -60 -26 -222 -103 -360 -170 -217 -106 -259 -131 -317 -184 -88 -81 -111 -130 -106 -221 3 -57 9 -77 34 -112 43 -61 94 -88 171 -88 82 0 104 10 177 79 81 78 158 126 356 222 91 45 307 151 480 238 173 86 356 176 406 199 111 52 166 98 201 165 21 43 24 60 20 104 -7 71 -46 135 -100 168 -23 14 -148 59 -277 101 -875 280 -1023 335 -1181 436 -101 65 -184 86 -264 67z m1053 -775 c12 -8 22 -21 22 -27 0 -8 -3 -9 -8 -1 -4 5 -18 18 -32 27 -13 9 -20 17 -14 17 5 0 20 -7 32 -16z"/>
<path d="M1376 1665 l-88 -45 -563 0 -562 0 -44 -23 c-149 -79 -140 -298 16 -368 37 -17 80 -19 664 -19 l623 0 82 38 c181 86 259 227 193 351 -34 66 -94 104 -170 109 -57 3 -69 -1 -151 -43z"/>
</g>
</svg>