<?xml version="1.0" encoding="UTF-8" standalone="no"?>
<!DOCTYPE svg PUBLIC "-//W3C//DTD SVG 20010904//EN" "http://www.w3.org/TR/2001/REC-SVG-20010904/DTD/svg10.dtd">
<svg version="1.0" xmlns="http://www.w3.org/2000/svg" width="300.000000pt" height="300.000000pt" viewBox="0 0 300.000000 300.000000" preserveAspectRatio="xMidYMid meet">
<metadata>
Created by potrace 1.10, written by Peter Selinger 2001-2011
</metadata>
<g transform="translate(0.000000,300.000000) scale(0.100000,-0.100000)" fill="#000000" stroke="none">
<path d="M1815 2433 c-16 -9 -55 -35 -85 -58 -311 -237 -816 -509 -1305 -703 -152 -60 -186 -72 -263 -92 -47 -12 -115 -67 -138 -111 -18 -35 -18 -110 0 -152 7 -18 34 -51 59 -74 36 -33 63 -47 134 -68 471 -140 1051 -347 1438 -512 145 -62 202 -70 268 -39 97 47 123 189 50 284 -62 82 -582 293 -1068 433 -77 22 -144 44 -148 48 -4 5 20 18 55 31 85 30 472 228 638 327 179 106 375 237 480 320 138 110 171 205 105 305 -46 70 -150 99 -220 61z"/>
<path d="M2635 1749 c-44 -4 -165 -15 -270 -24 -104 -9 -226 -21 -270 -26 -44 -5 -180 -16 -303 -24 -123 -9 -234 -20 -246 -25 -37 -14 -98 -72 -112 -107 -42 -99 24 -214 138 -244 36 -10 86 -8 274 9 289 27 429 38 729 57 132 9 255 20 273 25 135 37 187 204 94 304 -59 63 -119 74 -307 55z"/>
</g>
</svg>