<?xml version="1.0" encoding="UTF-8" standalone="no"?>
<!DOCTYPE svg PUBLIC "-//W3C//DTD SVG 20010904//EN" "http://www.w3.org/TR/2001/REC-SVG-20010904/DTD/svg10.dtd">
<svg version="1.0" xmlns="http://www.w3.org/2000/svg" width="300.000000pt" height="300.000000pt" viewBox="0 0 300.000000 300.000000" preserveAspectRatio="xMidYMid meet">
<metadata>
Created by potrace 1.10, written by Peter Selinger 2001-2011
</metadata>
<g transform="translate(0.000000,300.000000) scale(0.100000,-0.100000)" fill="#000000" stroke="none">
<path d="M1405 2979 c-44 -17 -104 -78 -115 -119 -6 -22 -6 -106 0 -229 5 -106 14 -326 20 -490 5 -163 14 -368 19 -456 6 -88 13 -218 17 -288 6 -125 7 -130 37 -163 44 -51 82 -67 157 -68 77 -1 127 24 167 86 l26 39 -7 237 c-5 196 -34 907 -49 1255 -5 103 -30 152 -94 182 -45 22 -136 29 -178 14z"/>
<path d="M2212 1959 c-45 -22 -77 -48 -113 -91 -110 -132 -217 -316 -341 -587 -68 -150 -198 -489 -198 -518 0 -37 -28 1 -58 78 -106 270 -310 625 -474 824 -86 105 -133 138 -209 150 -77 11 -179 -30 -179 -73 0 -10 -9 -23 -20 -30 -26 -16 -27 -75 -2 -123 10 -19 47 -73 83 -120 250 -321 477 -762 583 -1133 15 -48 26 -95 26 -104 0 -8 5 -44 11 -79 9 -53 14 -63 31 -63 11 0 22 -8 25 -19 5 -20 42 -41 73 -41 10 0 21 -4 24 -9 7 -11 97 4 133 22 15 9 40 28 55 44 26 27 38 55 134 318 126 349 427 968 599 1235 86 133 99 177 70 233 -8 15 -11 35 -8 43 5 14 1 15 -25 10 -33 -8 -44 2 -46 38 -1 18 -8 21 -56 24 -45 2 -66 -3 -118 -29z"/>
</g>
</svg>