<?xml version="1.0" encoding="UTF-8" standalone="no"?>
<!DOCTYPE svg PUBLIC "-//W3C//DTD SVG 20010904//EN" "http://www.w3.org/TR/2001/REC-SVG-20010904/DTD/svg10.dtd">
<svg version="1.0" xmlns="http://www.w3.org/2000/svg" width="300.000000pt" height="300.000000pt" viewBox="0 0 300.000000 300.000000" preserveAspectRatio="xMidYMid meet">
<metadata>
Created by potrace 1.10, written by Peter Selinger 2001-2011
</metadata>
<g transform="translate(0.000000,300.000000) scale(0.100000,-0.100000)" fill="#000000" stroke="none">
<path d="M1764 2979 c-70 -27 -128 -79 -161 -147 -25 -51 -28 -67 -28 -162 0 -123 16 -167 105 -285 76 -101 90 -137 83 -210 -4 -52 -2 -63 16 -82 32 -33 85 -31 121 5 28 29 50 100 50 166 0 72 -39 164 -108 255 -78 104 -94 182 -44 221 23 19 36 21 86 17 55 -5 61 -4 89 24 26 27 29 35 25 79 -6 63 -45 115 -96 130 -52 14 -79 12 -138 -11z"/>
<path d="M1271 2959 c-61 -24 -121 -81 -152 -144 -30 -61 -31 -70 -27 -150 4 -81 8 -92 61 -195 57 -109 57 -109 55 -189 -3 -72 -1 -82 21 -105 28 -30 59 -33 101 -11 68 35 100 183 61 285 -11 30 -36 79 -55 109 -19 30 -38 67 -41 83 -8 34 11 88 31 88 24 0 92 70 99 101 9 39 -11 94 -42 119 -27 21 -72 25 -112 9z"/>
<path d="M724 2796 c-46 -20 -101 -73 -132 -125 -24 -41 -27 -56 -27 -141 0 -103 7 -123 90 -265 30 -53 35 -68 35 -128 0 -101 24 -137 89 -137 66 0 105 68 104 180 0 73 -16 116 -81 223 -32 51 -42 77 -42 110 0 39 3 43 39 60 47 21 71 66 71 130 0 81 -72 126 -146 93z"/>
<path d="M19 1766 c-17 -36 5 -280 36 -423 69 -311 219 -634 389 -838 27 -33 83 -94 123 -136 40 -42 73 -81 73 -86 0 -6 -32 -8 -78 -5 l-78 4 -28 -33 c-24 -29 -28 -39 -24 -81 5 -51 25 -81 69 -104 20 -10 136 -15 510 -22 616 -11 1009 -6 1055 13 36 15 73 70 51 78 -8 2 -7 9 6 21 25 25 21 44 -17 82 -33 33 -37 34 -113 34 -71 1 -76 2 -58 16 59 44 223 219 263 281 79 121 100 156 118 203 23 62 26 64 69 46 57 -24 224 -22 302 4 72 25 166 97 210 163 140 209 111 530 -62 667 -92 74 -126 84 -282 88 l-143 4 0 24 0 24 -1190 0 -1190 0 -11 -24z m2611 -338 c49 -34 75 -91 75 -165 0 -52 -5 -69 -30 -105 -43 -61 -108 -92 -175 -83 -93 13 -140 73 -140 180 0 81 15 113 76 160 41 31 54 35 104 35 43 0 65 -6 90 -22z"/>
</g>
</svg>