<?xml version="1.0" encoding="UTF-8" standalone="no"?>
<!DOCTYPE svg PUBLIC "-//W3C//DTD SVG 20010904//EN" "http://www.w3.org/TR/2001/REC-SVG-20010904/DTD/svg10.dtd">
<svg version="1.0" xmlns="http://www.w3.org/2000/svg" width="300.000000pt" height="300.000000pt" viewBox="0 0 300.000000 300.000000" preserveAspectRatio="xMidYMid meet">
<metadata>
Created by potrace 1.10, written by Peter Selinger 2001-2011
</metadata>
<g transform="translate(0.000000,300.000000) scale(0.100000,-0.100000)" fill="#000000" stroke="none">
<path d="M2615 2971 c-46 -21 -268 -178 -376 -266 -141 -114 -464 -404 -564 -504 -55 -56 -103 -101 -108 -101 -4 0 -67 53 -140 118 -272 243 -420 359 -656 514 -263 173 -358 211 -474 194 -87 -13 -176 -120 -177 -210 0 -108 57 -179 255 -311 232 -156 606 -444 755 -583 l64 -59 -25 -30 c-13 -17 -89 -104 -169 -195 -218 -249 -343 -406 -541 -683 -131 -183 -273 -410 -302 -483 -50 -126 11 -270 143 -338 50 -25 143 -23 196 4 45 23 104 84 130 134 105 206 494 754 753 1060 172 204 176 208 190 208 42 0 466 -596 686 -965 127 -213 146 -240 188 -262 158 -82 337 31 354 224 7 81 -22 146 -176 398 -167 273 -362 550 -588 832 -44 55 -71 97 -67 106 13 34 475 452 699 632 275 221 303 257 292 373 -8 93 -52 156 -132 193 -53 24 -156 24 -210 0z"/>
</g>
</svg>