<?xml version="1.0" encoding="UTF-8" standalone="no"?>
<!DOCTYPE svg PUBLIC "-//W3C//DTD SVG 20010904//EN" "http://www.w3.org/TR/2001/REC-SVG-20010904/DTD/svg10.dtd">
<svg version="1.0" xmlns="http://www.w3.org/2000/svg" width="300.000000pt" height="300.000000pt" viewBox="0 0 300.000000 300.000000" preserveAspectRatio="xMidYMid meet">
<metadata>
Created by potrace 1.10, written by Peter Selinger 2001-2011
</metadata>
<g transform="translate(0.000000,300.000000) scale(0.100000,-0.100000)" fill="#000000" stroke="none">
<path d="M1390 2980 c-83 -12 -215 -53 -309 -96 -75 -35 -234 -137 -303 -195 -20 -17 -41 -28 -47 -25 -6 4 -35 44 -65 90 -70 106 -94 126 -156 126 -49 0 -90 -22 -110 -60 -30 -56 -350 -1165 -350 -1213 0 -94 77 -155 155 -123 19 8 85 54 147 103 62 48 187 144 277 213 305 233 346 266 360 295 24 49 25 105 3 160 -18 45 -18 53 -6 78 18 33 157 138 237 178 32 17 101 41 155 55 86 23 110 26 212 21 130 -5 203 -22 308 -72 243 -115 470 -381 555 -651 46 -146 61 -240 61 -384 1 -152 -13 -244 -56 -374 -123 -380 -460 -654 -848 -691 -143 -13 -360 34 -490 107 -198 111 -349 276 -465 506 -60 118 -68 130 -105 155 -54 37 -110 19 -204 -65 -45 -40 -49 -48 -53 -98 -8 -90 63 -249 195 -440 188 -270 439 -444 772 -532 76 -20 108 -23 295 -22 202 0 214 1 327 31 157 42 288 101 424 192 195 130 353 310 459 521 49 98 108 281 130 402 24 137 17 470 -13 609 -94 434 -326 789 -658 1008 -111 74 -254 136 -392 172 -89 23 -337 34 -442 19z"/>
</g>
</svg>