<?xml version="1.0" encoding="UTF-8" standalone="no"?>
<!DOCTYPE svg PUBLIC "-//W3C//DTD SVG 20010904//EN" "http://www.w3.org/TR/2001/REC-SVG-20010904/DTD/svg10.dtd">
<svg version="1.0" xmlns="http://www.w3.org/2000/svg" width="300.000000pt" height="300.000000pt" viewBox="0 0 300.000000 300.000000" preserveAspectRatio="xMidYMid meet">
<metadata>
Created by potrace 1.10, written by Peter Selinger 2001-2011
</metadata>
<g transform="translate(0.000000,300.000000) scale(0.100000,-0.100000)" fill="#000000" stroke="none">
<path d="M1335 2984 c-225 -32 -348 -69 -531 -159 -367 -183 -648 -544 -728 -937 -114 -555 45 -1054 457 -1436 236 -220 494 -349 822 -414 159 -31 417 -31 570 0 238 47 391 108 560 219 209 139 376 359 379 499 1 44 -4 59 -39 109 -49 71 -103 112 -160 120 -62 10 -94 -11 -164 -108 -152 -211 -375 -355 -628 -406 -123 -26 -329 -28 -455 -6 -373 65 -714 343 -846 690 -60 158 -66 195 -67 395 0 209 7 243 80 410 95 218 271 399 480 496 233 108 497 123 758 44 37 -12 67 -26 67 -31 0 -6 -22 -36 -49 -67 -65 -76 -73 -93 -65 -142 10 -59 31 -80 177 -178 73 -49 202 -135 287 -193 254 -170 381 -250 409 -255 56 -12 105 13 174 85 37 40 68 82 72 99 7 33 -3 69 -115 422 -38 118 -76 242 -85 275 -9 33 -34 117 -56 186 -51 161 -78 189 -183 189 -60 0 -145 -32 -202 -75 l-31 -24 -32 23 c-53 40 -246 116 -358 142 -89 21 -140 26 -288 29 -99 2 -193 1 -210 -1z"/>
</g>
</svg>