<?xml version="1.0" encoding="UTF-8" standalone="no"?>
<!DOCTYPE svg PUBLIC "-//W3C//DTD SVG 20010904//EN" "http://www.w3.org/TR/2001/REC-SVG-20010904/DTD/svg10.dtd">
<svg version="1.0" xmlns="http://www.w3.org/2000/svg" width="300.000000pt" height="300.000000pt" viewBox="0 0 300.000000 300.000000" preserveAspectRatio="xMidYMid meet">
<metadata>
Created by potrace 1.10, written by Peter Selinger 2001-2011
</metadata>
<g transform="translate(0.000000,300.000000) scale(0.100000,-0.100000)" fill="#000000" stroke="none">
<path d="M1541 2975 c-55 -25 -170 -151 -286 -315 -223 -317 -251 -355 -303 -412 -36 -38 -76 -69 -120 -90 l-66 -33 -276 0 -277 0 -49 -30 c-58 -36 -107 -105 -132 -184 -24 -79 -23 -407 1 -576 41 -280 107 -417 232 -483 l50 -26 325 -6 325 -5 67 -33 c78 -38 129 -93 245 -263 150 -221 167 -245 223 -314 80 -98 159 -170 203 -184 108 -36 194 41 233 206 21 90 13 145 -34 240 -119 238 -166 532 -166 1048 -1 431 29 680 111 928 34 104 34 110 23 173 -30 174 -113 325 -197 361 -41 17 -89 16 -132 -2z m-172 -860 c-30 -144 -43 -445 -30 -675 11 -179 38 -390 61 -471 15 -50 6 -46 -28 13 -53 93 -144 183 -230 225 l-76 38 -286 5 c-327 6 -322 4 -366 92 -36 70 -45 197 -20 263 29 74 51 85 175 85 58 0 164 5 234 10 110 8 136 13 190 39 34 16 87 52 118 80 65 58 209 252 247 333 15 31 28 56 29 55 0 -1 -7 -42 -18 -92z"/>
<path d="M2137 2345 c-56 -29 -109 -115 -111 -180 0 -22 11 -107 26 -190 15 -82 32 -207 39 -277 15 -167 7 -567 -16 -703 -15 -93 -15 -103 1 -145 63 -165 217 -210 324 -94 79 86 108 185 119 414 13 282 -8 616 -54 821 -57 259 -205 419 -328 354z"/>
<path d="M2624 2123 c-15 -16 -33 -41 -42 -58 -21 -41 -27 -171 -13 -291 6 -55 18 -201 25 -325 13 -226 14 -227 47 -289 39 -74 84 -111 142 -117 113 -13 183 125 194 382 13 298 -57 567 -176 679 -46 42 -54 46 -101 46 -43 0 -55 -4 -76 -27z"/>
</g>
</svg>