<?xml version="1.0" encoding="UTF-8" standalone="no"?>
<!DOCTYPE svg PUBLIC "-//W3C//DTD SVG 20010904//EN" "http://www.w3.org/TR/2001/REC-SVG-20010904/DTD/svg10.dtd">
<svg version="1.0" xmlns="http://www.w3.org/2000/svg" width="300.000000pt" height="300.000000pt" viewBox="0 0 300.000000 300.000000" preserveAspectRatio="xMidYMid meet">
<metadata>
Created by potrace 1.10, written by Peter Selinger 2001-2011
</metadata>
<g transform="translate(0.000000,300.000000) scale(0.100000,-0.100000)" fill="#000000" stroke="none">
<path d="M1945 2973 c-101 -55 -168 -128 -475 -524 -147 -191 -224 -263 -322 -301 -49 -20 -74 -21 -358 -22 -298 -1 -306 -2 -352 -24 -60 -30 -122 -101 -149 -172 -47 -121 -33 -512 26 -746 44 -175 117 -282 225 -333 l55 -25 366 -6 365 -5 76 -38 c89 -44 130 -86 317 -332 66 -88 143 -185 170 -216 78 -92 187 -186 235 -204 54 -21 122 -14 160 16 69 54 116 168 116 279 0 48 -7 70 -51 154 -63 122 -93 208 -124 361 -45 223 -57 397 -52 750 6 423 35 634 119 857 l40 107 -16 80 c-30 147 -105 281 -184 332 -37 23 -57 29 -101 29 -32 -1 -69 -8 -86 -17z m-169 -809 c-51 -175 -67 -613 -33 -892 16 -124 46 -290 62 -337 4 -11 -3 -4 -15 15 -54 86 -133 170 -197 213 -120 79 -127 80 -485 87 -358 6 -346 3 -400 91 -52 82 -59 199 -18 278 37 73 45 75 325 82 283 7 310 13 428 93 95 65 288 296 325 389 21 51 25 41 8 -19z"/>
</g>
</svg>