<?xml version="1.0" encoding="UTF-8" standalone="no"?>
<!DOCTYPE svg PUBLIC "-//W3C//DTD SVG 20010904//EN" "http://www.w3.org/TR/2001/REC-SVG-20010904/DTD/svg10.dtd">
<svg version="1.0" xmlns="http://www.w3.org/2000/svg" width="300.000000pt" height="300.000000pt" viewBox="0 0 300.000000 300.000000" preserveAspectRatio="xMidYMid meet">
<metadata>
Created by potrace 1.10, written by Peter Selinger 2001-2011
</metadata>
<g transform="translate(0.000000,300.000000) scale(0.100000,-0.100000)" fill="#000000" stroke="none">
<path d="M195 2975 c-78 -32 -144 -100 -173 -178 l-22 -58 0 -1239 0 -1239 21 -58 c29 -78 104 -153 182 -182 l58 -21 1239 0 1239 0 58 21 c78 29 153 104 182 182 l21 58 0 1239 0 1239 -21 58 c-29 78 -104 153 -182 182 l-58 21 -1242 0 -1242 0 -60 -25z m2537 -183 l33 -32 1 -433 c1 -312 6 -483 19 -617 10 -114 18 -324 20 -545 3 -198 9 -409 15 -470 29 -316 25 -376 -32 -441 -63 -72 -84 -77 -363 -87 -137 -5 -648 -9 -1135 -10 l-885 -2 -41 22 c-52 28 -106 90 -123 140 -7 21 -16 117 -22 213 -5 96 -16 243 -25 325 -18 164 -20 297 -15 845 4 375 -5 516 -44 741 -36 201 -5 295 110 345 36 16 101 19 590 26 303 4 622 9 710 11 88 1 384 3 657 2 l498 0 32 -33z"/>
<path d="M1689 2677 c-39 -26 -58 -71 -58 -139 -2 -106 -51 -278 -114 -403 -107 -207 -254 -348 -452 -434 -72 -31 -91 -35 -192 -39 -148 -6 -166 6 -91 55 271 178 538 563 565 814 10 96 -39 148 -130 136 -23 -3 -107 -20 -187 -37 -136 -30 -159 -32 -373 -35 l-229 -3 -29 -28 c-23 -22 -29 -36 -29 -70 0 -83 58 -118 211 -129 98 -7 334 8 420 26 28 6 53 8 56 5 9 -9 -75 -157 -132 -231 -122 -160 -291 -286 -432 -324 -65 -18 -93 -45 -93 -92 0 -57 22 -102 82 -165 62 -66 100 -92 183 -124 52 -21 77 -24 190 -24 120 0 137 3 222 32 51 17 116 44 145 58 260 131 470 382 569 678 20 59 39 104 42 99 3 -4 12 -43 21 -85 36 -175 10 -363 -74 -536 -46 -92 -63 -116 -143 -196 -176 -175 -385 -258 -647 -258 -140 0 -239 20 -372 73 -143 57 -210 52 -272 -21 -39 -47 -49 -100 -43 -235 7 -191 64 -324 191 -450 79 -78 153 -121 266 -156 65 -21 94 -24 225 -23 134 1 163 4 267 32 483 126 878 461 1084 917 21 47 42 85 46 85 11 0 9 -429 -2 -516 -23 -180 -102 -294 -240 -348 -27 -11 -86 -20 -145 -24 -92 -5 -102 -7 -127 -33 -54 -53 -29 -143 48 -175 44 -19 175 -18 249 1 254 66 403 248 436 533 15 126 6 738 -15 1012 -26 328 -65 659 -84 710 -23 60 -89 90 -146 66 -64 -27 -70 -53 -57 -260 33 -528 -95 -951 -395 -1306 -208 -246 -538 -431 -844 -472 -169 -22 -299 15 -397 113 -64 64 -100 135 -120 237 -22 112 -19 116 58 85 79 -32 215 -60 333 -69 232 -16 517 62 717 197 247 166 417 458 437 749 21 287 -37 507 -173 658 -79 87 -161 113 -226 69z"/>
</g>
</svg>