<?xml version="1.0" encoding="UTF-8" standalone="no"?>
<!DOCTYPE svg PUBLIC "-//W3C//DTD SVG 20010904//EN" "http://www.w3.org/TR/2001/REC-SVG-20010904/DTD/svg10.dtd">
<svg version="1.0" xmlns="http://www.w3.org/2000/svg" width="300.000000pt" height="300.000000pt" viewBox="0 0 300.000000 300.000000" preserveAspectRatio="xMidYMid meet">
<metadata>
Created by potrace 1.10, written by Peter Selinger 2001-2011
</metadata>
<g transform="translate(0.000000,300.000000) scale(0.100000,-0.100000)" fill="#000000" stroke="none">
<path d="M195 2975 c-78 -32 -144 -100 -173 -178 l-22 -58 0 -1239 0 -1239 21 -57 c27 -72 89 -140 154 -170 l50 -24 1275 0 1275 0 50 24 c65 30 127 98 154 170 l21 57 0 1239 0 1239 -21 58 c-29 78 -104 153 -182 182 l-58 21 -1242 0 -1242 0 -60 -25z m2526 -174 c59 -18 85 -53 100 -129 18 -99 21 -1550 3 -1852 -14 -234 -42 -438 -70 -496 -20 -41 -75 -69 -164 -83 -37 -6 -245 -11 -490 -11 -395 0 -704 -12 -1070 -40 -74 -6 -225 -11 -335 -11 -217 0 -309 14 -399 63 -53 30 -70 79 -91 260 -25 207 -45 1211 -35 1653 14 572 27 612 210 645 50 9 163 9 485 -1 410 -12 982 -7 1310 11 189 10 501 5 546 -9z"/>
<path d="M1545 2693 c-123 -11 -185 -50 -185 -116 0 -62 40 -91 337 -241 293 -149 396 -205 373 -206 -17 0 -163 42 -710 204 -721 213 -816 229 -896 145 -23 -24 -26 -34 -21 -66 4 -21 15 -49 25 -63 26 -35 136 -107 342 -225 96 -54 288 -164 425 -243 138 -80 387 -223 555 -319 168 -96 310 -179 315 -184 6 -6 -42 9 -105 31 -63 23 -169 61 -235 85 -240 86 -740 274 -1039 391 -252 99 -333 113 -399 69 -92 -63 -49 -170 123 -306 94 -74 342 -226 730 -446 405 -230 426 -243 414 -243 -10 0 -103 26 -489 139 -297 86 -368 103 -450 108 -101 7 -155 -7 -190 -49 -23 -27 -26 -39 -23 -78 10 -97 79 -163 393 -372 99 -67 182 -123 185 -125 7 -7 -77 4 -282 37 -174 28 -229 46 -287 91 -31 24 -52 24 -85 -2 -22 -17 -26 -29 -26 -68 0 -110 124 -214 291 -245 203 -39 784 -64 847 -37 69 29 76 110 14 181 -28 34 -191 148 -357 252 -101 63 -199 128 -193 128 9 0 345 -120 603 -215 280 -103 621 -221 719 -250 153 -44 253 -29 282 40 20 50 5 94 -49 141 -90 77 -636 427 -1087 696 -118 70 -211 128 -207 128 4 0 119 -41 255 -91 301 -111 804 -279 927 -309 96 -24 216 -24 265 -1 53 25 66 115 26 179 -32 51 -276 231 -386 285 -8 4 -51 30 -95 57 -44 28 -149 92 -233 143 -84 50 -171 104 -195 118 -121 76 -282 174 -360 220 -49 28 -86 53 -84 56 3 2 213 -57 468 -131 568 -165 618 -178 694 -179 212 -3 188 226 -39 388 -63 44 -325 206 -431 266 -39 22 -54 35 -43 37 10 2 126 -4 258 -12 188 -13 251 -20 293 -36 96 -37 148 -21 167 51 19 70 -15 130 -100 175 -33 18 -67 19 -520 20 -267 1 -503 -1 -525 -3z"/>
</g>
</svg>