<?xml version="1.0" encoding="UTF-8" standalone="no"?>
<!DOCTYPE svg PUBLIC "-//W3C//DTD SVG 20010904//EN" "http://www.w3.org/TR/2001/REC-SVG-20010904/DTD/svg10.dtd">
<svg version="1.0" xmlns="http://www.w3.org/2000/svg" width="300.000000pt" height="300.000000pt" viewBox="0 0 300.000000 300.000000" preserveAspectRatio="xMidYMid meet">
<metadata>
Created by potrace 1.10, written by Peter Selinger 2001-2011
</metadata>
<g transform="translate(0.000000,300.000000) scale(0.100000,-0.100000)" fill="#000000" stroke="none">
<path d="M195 2975 c-78 -32 -144 -100 -173 -178 l-22 -58 0 -1239 0 -1239 21 -57 c27 -72 89 -140 154 -170 l50 -24 1275 0 1275 0 50 24 c65 30 127 98 154 170 l21 57 0 1239 0 1239 -21 58 c-29 78 -104 153 -182 182 l-58 21 -1242 0 -1242 0 -60 -25z m2526 -174 c59 -18 85 -53 100 -129 18 -99 21 -1550 3 -1852 -14 -234 -42 -438 -70 -496 -20 -41 -75 -69 -164 -83 -37 -6 -245 -11 -490 -11 -395 0 -704 -12 -1070 -40 -74 -6 -225 -11 -335 -11 -217 0 -309 14 -399 63 -53 30 -70 79 -91 260 -25 207 -45 1211 -35 1653 14 572 27 612 210 645 50 9 163 9 485 -1 410 -12 982 -7 1310 11 189 10 501 5 546 -9z"/>
<path d="M1050 2693 c-19 -1 -83 -8 -141 -13 -227 -22 -367 -77 -468 -186 -78 -83 -127 -183 -148 -299 -23 -134 -13 -396 22 -579 85 -450 197 -774 331 -962 119 -168 307 -270 569 -309 153 -23 578 -23 725 -1 332 51 524 172 635 401 45 92 104 299 125 440 18 123 23 373 11 550 -36 527 -124 723 -376 841 -131 61 -272 90 -560 114 -109 9 -640 12 -725 3z m665 -284 c452 -29 593 -90 658 -283 42 -124 74 -466 63 -676 -23 -437 -114 -663 -307 -760 -129 -66 -355 -96 -653 -87 -274 8 -393 38 -509 126 -110 83 -169 193 -250 466 -130 435 -179 826 -122 987 34 98 137 177 270 207 127 29 559 40 850 20z"/>
<path d="M979 2272 c-89 -24 -142 -60 -178 -124 -59 -103 -61 -249 -6 -459 114 -440 409 -801 725 -888 82 -23 223 -28 299 -10 141 32 242 121 319 280 67 137 87 234 79 384 -6 116 -28 210 -72 310 -136 307 -349 459 -714 509 -151 21 -366 20 -452 -2z m514 -291 c212 -55 342 -176 411 -383 108 -321 -58 -581 -326 -514 -76 20 -180 87 -244 160 -189 214 -327 574 -264 690 15 29 54 54 105 67 50 14 234 2 318 -20z"/>
<path d="M1373 1780 c-95 -38 -54 -250 77 -393 115 -126 248 -127 281 -3 53 195 -190 464 -358 396z"/>
</g>
</svg>