<?xml version="1.0" encoding="UTF-8" standalone="no"?>
<!DOCTYPE svg PUBLIC "-//W3C//DTD SVG 20010904//EN" "http://www.w3.org/TR/2001/REC-SVG-20010904/DTD/svg10.dtd">
<svg version="1.0" xmlns="http://www.w3.org/2000/svg" width="300.000000pt" height="300.000000pt" viewBox="0 0 300.000000 300.000000" preserveAspectRatio="xMidYMid meet">
<metadata>
Created by potrace 1.10, written by Peter Selinger 2001-2011
</metadata>
<g transform="translate(0.000000,300.000000) scale(0.100000,-0.100000)" fill="#000000" stroke="none">
<path d="M195 2975 c-78 -32 -144 -100 -173 -178 l-22 -58 0 -1239 0 -1239 21 -58 c29 -78 104 -153 182 -182 l58 -21 1239 0 1239 0 58 21 c78 29 153 104 182 182 l21 58 0 1239 0 1239 -21 58 c-29 78 -104 153 -182 182 l-58 21 -1242 0 -1242 0 -60 -25z m2487 -195 c21 -6 53 -25 71 -43 53 -50 62 -132 57 -507 -6 -338 -5 -601 1 -1035 4 -308 -12 -558 -50 -773 -16 -93 -21 -105 -51 -132 -63 -56 17 -51 -1030 -70 -451 -8 -557 -13 -565 -24 -9 -11 -76 -15 -327 -21 -304 -7 -316 -7 -335 12 -12 12 -47 24 -90 32 -116 20 -130 46 -159 286 -34 285 -51 1582 -25 1912 18 236 40 299 117 338 38 18 64 19 859 17 451 -1 888 2 970 7 225 12 515 12 557 1z"/>
<path d="M1110 2659 c-372 -28 -629 -95 -686 -178 -26 -39 -32 -107 -13 -143 12 -22 66 -48 102 -48 13 0 45 14 73 32 97 62 240 89 576 108 232 13 789 14 891 1 105 -14 166 -42 226 -106 68 -72 88 -141 103 -350 21 -313 -8 -995 -48 -1135 -22 -75 -97 -151 -174 -175 -73 -23 -327 -32 -459 -15 -120 15 -257 58 -340 107 -82 49 -166 140 -205 223 -30 62 -31 71 -31 190 0 117 2 129 28 182 48 98 134 152 261 165 63 7 167 -11 205 -35 14 -9 47 -38 72 -64 42 -45 48 -48 96 -48 41 0 55 5 76 26 78 78 17 198 -142 283 -107 57 -272 77 -416 50 -173 -32 -316 -162 -373 -338 -32 -101 -41 -274 -18 -381 60 -283 301 -488 668 -566 108 -23 522 -27 608 -5 198 49 324 177 365 371 66 314 80 1096 24 1375 -48 245 -190 401 -420 461 -55 15 -126 18 -499 20 -239 1 -487 -2 -550 -7z"/>
<path d="M1215 2199 c-208 -27 -375 -107 -501 -240 -133 -142 -206 -301 -250 -549 -23 -131 -24 -446 -1 -546 45 -198 145 -363 269 -446 182 -121 195 -128 242 -128 66 0 109 39 110 101 1 63 -18 87 -120 143 -220 122 -294 270 -294 584 0 502 180 786 534 847 116 20 396 20 489 0 219 -46 347 -220 347 -472 0 -151 -49 -259 -143 -317 -56 -35 -142 -46 -202 -26 -49 16 -112 74 -120 109 -3 16 -20 41 -36 57 -24 23 -39 29 -75 29 -39 0 -50 -5 -75 -33 -23 -26 -29 -42 -29 -78 0 -110 133 -248 284 -296 76 -25 226 -21 296 7 78 32 151 87 198 149 87 117 122 232 122 399 0 379 -217 650 -565 703 -100 15 -369 17 -480 3z"/>
</g>
</svg>