<?xml version="1.0" encoding="UTF-8" standalone="no"?>
<!DOCTYPE svg PUBLIC "-//W3C//DTD SVG 20010904//EN" "http://www.w3.org/TR/2001/REC-SVG-20010904/DTD/svg10.dtd">
<svg version="1.0" xmlns="http://www.w3.org/2000/svg" width="300.000000pt" height="300.000000pt" viewBox="0 0 300.000000 300.000000" preserveAspectRatio="xMidYMid meet">
<metadata>
Created by potrace 1.10, written by Peter Selinger 2001-2011
</metadata>
<g transform="translate(0.000000,300.000000) scale(0.100000,-0.100000)" fill="#000000" stroke="none">
<path d="M292 2974 c-119 -32 -187 -86 -239 -191 l-38 -77 0 -1205 0 -1206 24 -60 c33 -81 107 -154 186 -185 34 -13 101 -26 156 -32 53 -5 588 -7 1200 -6 1019 3 1108 5 1156 21 110 37 196 119 230 220 17 48 18 134 21 1202 2 805 0 1170 -8 1215 -28 165 -120 270 -267 306 -87 20 -2343 19 -2421 -2z m2376 -257 c23 -15 52 -46 64 -70 l23 -42 0 -1112 0 -1111 -30 -43 c-16 -23 -50 -53 -74 -66 l-44 -23 -1103 0 c-755 0 -1112 3 -1131 11 -40 15 -82 57 -104 104 -18 38 -19 90 -19 1135 0 1043 1 1097 19 1135 20 44 50 74 96 98 27 15 143 16 1146 14 l1115 -2 42 -28z"/>
<path d="M765 2580 c-135 -29 -236 -101 -293 -207 -39 -73 -67 -212 -81 -399 -28 -361 0 -768 60 -886 75 -146 228 -207 410 -163 131 32 382 146 581 263 255 152 456 351 583 577 48 85 109 244 134 350 30 123 40 145 63 145 87 0 120 -127 139 -540 19 -405 -4 -875 -47 -965 -22 -47 -85 -102 -132 -114 -96 -26 -320 -43 -627 -48 -176 -3 -318 -3 -315 0 3 3 75 30 160 60 442 156 655 285 730 442 58 122 48 246 -23 297 -69 49 -157 14 -157 -63 0 -206 -104 -274 -795 -524 -115 -42 -246 -93 -291 -115 -147 -71 -192 -156 -124 -233 77 -88 191 -102 770 -93 554 8 705 25 843 98 203 108 245 293 234 1043 -8 595 -36 766 -143 885 -121 133 -305 151 -411 39 -40 -43 -57 -84 -82 -197 -94 -433 -327 -707 -806 -952 -175 -90 -289 -130 -367 -130 -55 0 -63 3 -93 33 -18 18 -38 51 -44 72 -22 80 -34 309 -28 550 10 402 38 496 166 540 82 28 484 11 625 -26 83 -22 146 -88 146 -153 0 -75 -73 -189 -196 -307 -240 -230 -436 -281 -358 -93 40 95 128 168 251 205 98 30 133 62 133 119 0 33 -6 48 -30 72 -30 30 -33 30 -108 26 -117 -7 -235 -71 -344 -185 -108 -114 -158 -225 -158 -352 0 -119 68 -213 174 -242 85 -24 247 30 396 131 192 130 337 286 418 449 46 91 47 97 47 185 0 72 -4 101 -21 137 -62 134 -200 215 -431 254 -112 18 -495 29 -558 15z"/>
</g>
</svg>