<?xml version="1.0" encoding="UTF-8" standalone="no"?>
<!DOCTYPE svg PUBLIC "-//W3C//DTD SVG 20010904//EN" "http://www.w3.org/TR/2001/REC-SVG-20010904/DTD/svg10.dtd">
<svg version="1.0" xmlns="http://www.w3.org/2000/svg" width="300.000000pt" height="300.000000pt" viewBox="0 0 300.000000 300.000000" preserveAspectRatio="xMidYMid meet">
<metadata>
Created by potrace 1.10, written by Peter Selinger 2001-2011
</metadata>
<g transform="translate(0.000000,300.000000) scale(0.100000,-0.100000)" fill="#000000" stroke="none">
<path d="M195 2975 c-78 -32 -144 -100 -173 -178 l-22 -58 0 -1239 0 -1239 21 -58 c29 -78 104 -153 182 -182 l58 -21 1239 0 1239 0 58 21 c78 29 153 104 182 182 l21 58 0 1239 0 1239 -21 58 c-29 78 -104 153 -182 182 l-58 21 -1242 0 -1242 0 -60 -25z m2539 -191 c22 -11 48 -31 57 -45 34 -46 44 -174 39 -494 -7 -429 -6 -727 4 -985 9 -251 -7 -525 -45 -783 -22 -145 -42 -197 -76 -197 -9 0 -24 -7 -34 -16 -25 -23 -165 -33 -459 -35 -348 -1 -1051 -25 -1126 -38 -34 -6 -187 -12 -340 -13 -244 -3 -282 -1 -304 13 -14 9 -51 19 -83 23 -32 3 -69 13 -82 22 -63 41 -89 230 -102 759 -12 478 -9 1432 5 1542 13 96 39 193 53 193 5 0 16 8 26 19 37 38 95 41 956 42 458 1 902 5 987 9 85 4 229 7 320 6 146 -1 170 -3 204 -22z"/>
<path d="M1198 2695 c-30 -17 -58 -62 -58 -94 0 -31 46 -78 109 -111 91 -49 219 -150 313 -249 95 -98 116 -108 177 -76 35 17 41 32 41 94 0 59 -24 94 -141 206 -80 77 -207 168 -296 213 -57 30 -112 36 -145 17z"/>
<path d="M1943 2690 c-40 -13 -83 -64 -83 -99 0 -16 10 -41 22 -56 16 -20 21 -39 19 -66 -4 -53 12 -75 72 -105 128 -64 233 -164 272 -259 19 -44 48 -71 88 -80 16 -4 47 -18 70 -31 33 -19 57 -24 111 -24 66 0 70 1 106 38 47 47 57 91 42 186 -16 106 -79 225 -161 306 -74 73 -207 149 -305 174 -74 20 -213 28 -253 16z m439 -385 c12 -23 9 -20 -57 55 l-49 55 48 -45 c26 -25 52 -54 58 -65z"/>
<path d="M655 2619 c-25 -22 -35 -39 -35 -61 0 -56 25 -85 113 -129 99 -50 212 -125 288 -190 31 -27 61 -49 65 -49 15 0 163 -138 225 -209 79 -93 114 -103 169 -53 48 42 52 97 12 159 -47 72 -222 241 -350 336 -126 94 -373 227 -422 227 -19 0 -42 -11 -65 -31z"/>
<path d="M394 2282 c-33 -26 -47 -60 -40 -97 7 -36 56 -85 84 -85 28 0 169 -66 267 -124 124 -74 245 -165 330 -247 81 -78 105 -90 152 -76 44 14 64 37 70 86 7 54 -17 91 -120 184 -188 169 -351 269 -555 343 -103 38 -156 42 -188 16z"/>
<path d="M1864 2098 c-20 -18 -72 -72 -115 -120 -71 -79 -79 -92 -79 -129 0 -59 42 -99 103 -99 42 0 47 3 98 63 30 34 80 87 111 117 54 52 58 58 58 102 0 41 -4 50 -33 72 -48 37 -96 35 -143 -6z"/>
<path d="M345 1855 c-65 -34 -81 -83 -45 -142 19 -31 66 -53 115 -53 86 0 333 -108 425 -185 50 -42 58 -46 95 -40 47 7 64 20 81 61 14 33 6 86 -18 116 -28 35 -133 110 -201 145 -107 53 -184 80 -283 97 -111 20 -131 20 -169 1z"/>
<path d="M2132 1863 c-13 -3 -26 -12 -29 -21 -4 -9 -15 -28 -25 -42 -33 -46 -16 -83 68 -145 101 -75 199 -170 264 -255 104 -136 118 -150 161 -150 58 0 89 32 96 101 l5 55 -67 90 c-122 162 -292 319 -390 360 -35 14 -42 15 -83 7z"/>
<path d="M1394 1578 c-187 -194 -204 -215 -204 -261 0 -23 7 -52 15 -64 18 -26 71 -43 108 -36 29 6 167 151 167 176 0 9 21 34 47 57 53 47 83 87 83 112 0 10 -14 33 -31 53 -26 30 -38 35 -73 35 -38 0 -47 -5 -112 -72z"/>
<path d="M1924 1591 c-37 -22 -58 -71 -44 -104 13 -32 27 -46 100 -104 173 -136 372 -376 463 -558 45 -90 67 -110 122 -110 60 0 105 42 105 96 0 59 -115 270 -224 409 -100 129 -290 310 -387 369 -42 26 -95 27 -135 2z"/>
<path d="M393 1454 c-12 -3 -34 -19 -48 -35 -34 -41 -33 -88 3 -126 25 -27 35 -30 114 -36 94 -8 167 -28 210 -58 16 -12 43 -19 71 -19 38 0 49 5 71 31 19 22 26 42 26 71 0 62 -52 108 -159 142 -82 26 -235 42 -288 30z"/>
<path d="M1661 1284 c-26 -21 -31 -33 -31 -68 0 -39 5 -48 58 -97 208 -194 384 -463 414 -629 8 -48 16 -65 41 -86 26 -22 38 -25 75 -21 68 8 95 40 94 114 -1 96 -80 287 -187 452 -52 81 -231 272 -306 326 -60 45 -113 48 -158 9z"/>
<path d="M1005 1168 c-11 -6 -64 -54 -117 -107 -88 -85 -98 -99 -98 -131 0 -53 51 -100 107 -100 47 0 67 14 181 124 69 68 72 72 72 117 0 41 -4 51 -35 78 -37 32 -74 39 -110 19z"/>
<path d="M420 1133 c-61 -22 -81 -103 -37 -147 27 -27 117 -56 174 -56 49 0 82 32 90 87 7 52 -29 96 -91 112 -47 11 -110 13 -136 4z"/>
<path d="M1413 1074 c-28 -22 -33 -32 -33 -69 0 -38 6 -51 51 -102 115 -132 224 -332 236 -435 11 -102 56 -142 132 -119 48 14 57 24 72 84 11 39 10 57 -4 118 -36 151 -171 383 -285 492 -52 49 -66 57 -99 57 -26 0 -49 -9 -70 -26z"/>
<path d="M460 893 c-112 -41 -158 -86 -145 -142 16 -76 100 -97 207 -53 66 28 88 55 88 111 0 32 -6 44 -31 65 -30 25 -80 33 -119 19z"/>
<path d="M1157 842 c-35 -36 -34 -59 4 -137 44 -91 59 -157 59 -258 0 -84 1 -90 29 -118 54 -54 135 -35 167 39 21 50 12 183 -22 298 -46 159 -82 204 -163 204 -39 0 -52 -5 -74 -28z"/>
<path d="M647 740 c-14 -11 -39 -54 -57 -97 -18 -43 -48 -105 -66 -139 -49 -88 -44 -138 16 -169 76 -39 125 -8 182 114 22 47 50 109 64 137 33 69 31 108 -5 145 -36 36 -95 40 -134 9z"/>
<path d="M908 663 c-26 -28 -26 -29 -24 -182 1 -151 2 -154 27 -182 22 -24 35 -29 72 -29 39 0 49 5 76 35 31 35 31 37 31 148 -1 136 -11 185 -45 215 -39 33 -103 31 -137 -5z"/>
</g>
</svg>