<?xml version="1.0" encoding="UTF-8" standalone="no"?>
<!DOCTYPE svg PUBLIC "-//W3C//DTD SVG 20010904//EN" "http://www.w3.org/TR/2001/REC-SVG-20010904/DTD/svg10.dtd">
<svg version="1.0" xmlns="http://www.w3.org/2000/svg" width="300.000000pt" height="300.000000pt" viewBox="0 0 300.000000 300.000000" preserveAspectRatio="xMidYMid meet">
<metadata>
Created by potrace 1.10, written by Peter Selinger 2001-2011
</metadata>
<g transform="translate(0.000000,300.000000) scale(0.100000,-0.100000)" fill="#000000" stroke="none">
<path d="M247 2986 c-92 -25 -179 -108 -222 -213 -20 -47 -20 -78 -23 -1282 l-2 -1234 28 -62 c39 -83 82 -128 154 -165 l61 -30 1257 0 1257 0 61 30 c71 36 115 82 151 160 l26 55 0 1250 0 1250 -26 55 c-34 72 -97 136 -167 168 l-57 27 -1225 2 c-981 1 -1235 -1 -1273 -11z m2270 -242 c97 -27 198 -129 231 -234 16 -51 17 -132 17 -1000 l0 -945 -22 -71 c-28 -88 -68 -144 -135 -189 -104 -68 -68 -66 -1134 -63 l-959 3 -65 31 c-107 51 -163 121 -196 241 -13 50 -15 180 -15 989 1 895 1 934 20 994 35 112 111 198 212 237 57 23 416 29 1334 25 537 -3 670 -6 712 -18z"/>
<path d="M783 2690 c-156 -22 -258 -64 -329 -137 -49 -50 -80 -131 -68 -180 18 -73 79 -118 151 -110 50 5 82 31 133 106 38 54 68 79 108 87 29 6 62 -15 62 -38 0 -6 -85 -97 -189 -202 -192 -195 -253 -272 -292 -375 -76 -200 50 -411 247 -411 149 0 210 44 679 494 422 405 529 496 580 496 28 0 45 -18 45 -49 0 -31 -93 -124 -495 -495 -149 -137 -319 -294 -380 -350 -168 -156 -269 -242 -401 -347 -158 -126 -227 -221 -253 -350 -29 -143 61 -305 190 -343 69 -21 110 -20 202 3 239 62 413 203 1054 860 537 551 516 531 558 531 26 0 39 -6 52 -26 16 -26 16 -28 -10 -78 -58 -110 -463 -526 -767 -787 -113 -97 -222 -195 -244 -219 -105 -116 -110 -267 -11 -365 74 -74 182 -93 327 -56 179 46 300 125 549 357 54 51 86 74 103 74 57 0 44 -43 -26 -90 -115 -78 -134 -112 -105 -183 41 -98 185 -88 296 22 150 147 156 336 15 460 -57 50 -136 76 -201 67 -79 -11 -133 -47 -358 -236 -170 -144 -338 -260 -376 -260 -22 0 -38 21 -30 41 3 9 56 53 116 99 340 257 511 412 709 640 210 242 269 349 269 496 1 72 -3 89 -31 147 -54 109 -153 177 -258 177 -52 0 -133 -36 -207 -91 -72 -54 -410 -375 -832 -789 -266 -261 -356 -343 -454 -409 -75 -51 -198 -111 -228 -111 -22 0 -53 24 -53 40 0 19 65 82 163 156 201 153 354 292 768 696 436 426 514 509 553 586 79 156 42 312 -91 384 -87 48 -198 46 -315 -4 -111 -47 -296 -209 -738 -643 -124 -122 -238 -231 -254 -243 -68 -52 -137 -12 -101 59 10 18 116 133 235 254 195 199 221 229 256 300 32 66 39 89 39 140 0 51 -5 69 -28 104 -30 46 -73 76 -127 90 -58 16 -141 20 -207 11z"/>
</g>
</svg>