<?xml version="1.0" encoding="UTF-8" standalone="no"?>
<!DOCTYPE svg PUBLIC "-//W3C//DTD SVG 20010904//EN" "http://www.w3.org/TR/2001/REC-SVG-20010904/DTD/svg10.dtd">
<svg version="1.0" xmlns="http://www.w3.org/2000/svg" width="300.000000pt" height="300.000000pt" viewBox="0 0 300.000000 300.000000" preserveAspectRatio="xMidYMid meet">
<metadata>
Created by potrace 1.10, written by Peter Selinger 2001-2011
</metadata>
<g transform="translate(0.000000,300.000000) scale(0.100000,-0.100000)" fill="#000000" stroke="none">
<path d="M445 2980 c-171 -7 -202 -14 -277 -64 -59 -39 -101 -92 -130 -164 l-23 -57 0 -1200 0 -1200 24 -59 c32 -79 96 -146 174 -182 l62 -29 1230 0 1230 0 56 28 c69 34 120 80 149 136 50 99 50 96 50 1301 0 723 -4 1148 -10 1190 -21 127 -87 221 -190 269 -53 24 -64 26 -320 32 -326 9 -1805 8 -2025 -1z m2192 -245 c48 -20 71 -41 94 -87 18 -36 19 -78 19 -1154 l0 -1116 -22 -40 c-13 -23 -41 -51 -67 -66 l-43 -25 -1119 1 c-1209 1 -1144 -2 -1196 54 -55 59 -53 5 -53 1195 0 1046 1 1100 19 1138 20 44 50 74 96 98 27 15 147 16 1133 17 970 0 1107 -2 1139 -15z"/>
<path d="M808 2665 c-89 -17 -236 -70 -304 -110 -62 -37 -141 -116 -160 -160 -18 -45 -18 -138 1 -175 16 -30 61 -60 90 -60 23 0 75 55 75 79 0 82 250 207 435 217 44 3 86 1 94 -4 23 -16 4 -40 -41 -52 -133 -36 -237 -100 -349 -216 -220 -227 -357 -594 -294 -784 48 -144 209 -211 344 -144 64 32 138 105 345 339 182 206 446 472 556 561 176 143 338 232 438 241 46 4 62 2 75 -12 24 -23 21 -55 -7 -94 -33 -44 -43 -50 -172 -108 -245 -109 -372 -219 -873 -753 -392 -419 -447 -486 -514 -628 -25 -54 -32 -83 -35 -152 -5 -107 18 -169 85 -231 64 -58 103 -73 203 -73 77 -1 92 2 151 31 93 46 136 88 308 297 182 222 338 393 454 499 307 278 646 450 704 357 37 -57 -38 -149 -162 -199 -228 -93 -457 -282 -594 -491 -121 -183 -133 -324 -39 -426 53 -57 121 -79 220 -71 98 8 151 41 303 187 129 125 204 180 244 180 28 0 26 -16 -6 -54 -39 -46 -73 -126 -73 -171 0 -104 120 -174 224 -131 18 8 41 24 50 37 19 28 22 89 4 89 -39 1 -39 17 1 94 37 70 41 84 41 150 0 67 -3 78 -32 122 -79 116 -237 135 -388 46 -37 -22 -123 -95 -211 -179 -112 -108 -154 -143 -173 -143 -101 0 122 303 323 439 57 39 134 78 281 142 73 32 163 121 197 196 24 51 28 70 28 163 0 115 -14 157 -72 212 -53 51 -119 73 -213 72 -72 -1 -101 -6 -183 -37 -211 -77 -450 -239 -696 -472 -92 -88 -263 -279 -406 -455 -133 -163 -188 -220 -238 -243 -48 -23 -78 -19 -96 15 -14 24 -13 32 2 82 29 92 105 182 583 696 366 393 482 490 722 601 142 66 191 98 232 149 54 68 73 126 74 220 1 101 -18 145 -89 208 -230 202 -674 -19 -1218 -607 -79 -86 -181 -199 -227 -251 -159 -183 -216 -235 -244 -224 -25 10 -20 75 15 178 57 171 182 369 277 436 29 21 98 57 154 81 55 23 121 56 147 73 91 62 134 184 97 280 -21 54 -90 120 -142 136 -62 19 -239 21 -326 5z"/>
</g>
</svg>