<?xml version="1.0" encoding="UTF-8" standalone="no"?>
<!DOCTYPE svg PUBLIC "-//W3C//DTD SVG 20010904//EN" "http://www.w3.org/TR/2001/REC-SVG-20010904/DTD/svg10.dtd">
<svg version="1.0" xmlns="http://www.w3.org/2000/svg" width="300.000000pt" height="300.000000pt" viewBox="0 0 300.000000 300.000000" preserveAspectRatio="xMidYMid meet">
<metadata>
Created by potrace 1.10, written by Peter Selinger 2001-2011
</metadata>
<g transform="translate(0.000000,300.000000) scale(0.100000,-0.100000)" fill="#000000" stroke="none">
<path d="M195 2975 c-78 -32 -144 -100 -173 -178 l-22 -58 0 -1239 0 -1239 21 -57 c27 -72 89 -140 154 -170 l50 -24 1275 0 1275 0 50 24 c65 30 127 98 154 170 l21 57 0 1239 0 1239 -21 58 c-29 78 -104 153 -182 182 l-58 21 -1242 0 -1242 0 -60 -25z m2526 -174 c59 -18 85 -53 100 -129 18 -99 21 -1550 3 -1852 -14 -234 -42 -438 -70 -496 -20 -41 -75 -69 -164 -83 -37 -6 -245 -11 -490 -11 -395 0 -704 -12 -1070 -40 -74 -6 -225 -11 -335 -11 -217 0 -309 14 -399 63 -53 30 -70 79 -91 260 -25 207 -45 1211 -35 1653 14 572 27 612 210 645 50 9 163 9 485 -1 410 -12 982 -7 1310 11 189 10 501 5 546 -9z"/>
<path d="M700 2662 c-129 -34 -230 -118 -287 -239 -53 -110 -56 -177 -49 -958 6 -538 10 -693 21 -743 47 -202 205 -349 429 -398 86 -18 262 -17 661 5 99 6 295 15 435 21 355 14 445 37 555 141 70 66 109 146 129 264 46 266 69 461 73 613 5 182 1 216 -57 462 -51 215 -67 311 -83 502 -15 168 -26 200 -73 218 -40 16 -86 12 -121 -10 -37 -22 -47 -51 -40 -112 42 -380 53 -456 98 -663 64 -290 68 -351 40 -570 -33 -258 -50 -365 -67 -417 -32 -97 -106 -165 -205 -187 -25 -6 -205 -15 -400 -20 -194 -6 -417 -16 -494 -22 -207 -17 -395 -8 -469 21 -67 26 -141 92 -169 151 -31 67 -36 171 -38 844 -2 533 0 678 11 710 30 92 100 155 193 175 34 7 116 9 237 5 102 -4 298 -7 435 -9 236 -2 253 -3 300 -24 65 -30 109 -73 134 -133 13 -30 37 -155 66 -341 25 -161 53 -333 62 -382 38 -211 -21 -452 -141 -572 -81 -80 -134 -96 -336 -102 -97 -2 -189 0 -224 7 -121 22 -206 86 -255 192 -43 91 -53 174 -41 354 6 83 14 216 19 296 9 152 23 201 68 241 75 68 286 63 380 -8 78 -59 112 -160 120 -351 5 -120 3 -150 -11 -188 -32 -82 -94 -108 -143 -59 -23 23 -25 31 -21 88 3 51 10 71 33 102 43 56 42 115 -3 155 -54 48 -129 36 -186 -31 -68 -81 -87 -283 -36 -383 76 -150 285 -229 411 -155 87 51 145 143 170 269 16 81 6 342 -16 429 -39 148 -129 277 -240 340 -76 43 -190 70 -299 70 -261 0 -410 -120 -436 -351 -16 -142 -31 -356 -37 -534 -5 -153 -4 -179 16 -255 31 -126 74 -204 150 -280 76 -76 158 -122 268 -152 66 -18 106 -21 263 -21 220 0 296 13 418 74 187 92 285 243 327 504 23 138 19 252 -15 449 -17 96 -32 181 -35 188 -2 7 -18 106 -34 219 -17 114 -38 229 -47 255 -46 139 -148 238 -304 295 -65 23 -68 23 -555 26 -437 2 -497 1 -555 -15z"/>
</g>
</svg>