<?xml version="1.0" encoding="UTF-8" standalone="no"?>
<!DOCTYPE svg PUBLIC "-//W3C//DTD SVG 20010904//EN" "http://www.w3.org/TR/2001/REC-SVG-20010904/DTD/svg10.dtd">
<svg version="1.0" xmlns="http://www.w3.org/2000/svg" width="300.000000pt" height="300.000000pt" viewBox="0 0 300.000000 300.000000" preserveAspectRatio="xMidYMid meet">
<metadata>
Created by potrace 1.10, written by Peter Selinger 2001-2011
</metadata>
<g transform="translate(0.000000,300.000000) scale(0.100000,-0.100000)" fill="#000000" stroke="none">
<path d="M253 2986 c-102 -33 -176 -97 -222 -196 l-26 -55 0 -1235 0 -1235 26 -56 c37 -79 90 -133 167 -171 l67 -33 1235 0 1235 0 67 33 c77 38 130 92 167 171 l26 56 0 1235 0 1235 -33 67 c-38 77 -92 130 -171 167 l-56 26 -1220 2 c-989 1 -1228 -1 -1262 -11z m2413 -238 c39 -21 82 -71 92 -106 9 -35 9 -2249 0 -2284 -10 -35 -53 -85 -92 -106 -29 -16 -112 -17 -1156 -17 -619 0 -1137 3 -1152 7 -35 10 -85 53 -106 92 -16 29 -17 114 -20 1121 -2 600 0 1113 3 1142 10 81 64 146 136 163 19 5 536 7 1149 7 1032 -2 1117 -3 1146 -19z"/>
<path d="M935 2640 c-248 -7 -286 -16 -392 -88 -114 -78 -167 -172 -184 -329 -7 -68 -9 -314 -6 -745 4 -544 7 -656 21 -727 40 -202 147 -336 301 -376 86 -22 1523 -22 1629 0 87 18 146 53 195 116 53 66 78 137 106 304 46 272 57 695 25 945 -38 292 -123 452 -271 508 -104 39 -189 44 -669 39 -498 -4 -531 -8 -658 -67 -83 -39 -165 -118 -202 -194 -54 -114 -65 -206 -64 -531 2 -319 10 -388 61 -491 37 -77 120 -159 197 -195 97 -45 175 -52 521 -46 268 4 319 7 376 24 171 50 265 158 319 368 27 104 30 348 6 438 -26 93 -65 163 -123 218 -93 88 -173 108 -423 109 -260 0 -365 -25 -439 -105 -80 -87 -106 -183 -99 -363 5 -120 20 -172 67 -230 52 -67 105 -86 247 -90 192 -6 271 27 320 133 33 70 34 178 1 226 -28 42 -60 59 -113 59 -30 0 -48 -7 -68 -25 -33 -31 -35 -65 -3 -65 13 0 32 -9 42 -20 39 -43 -20 -113 -94 -113 -159 0 -187 259 -37 341 24 13 57 17 151 17 144 0 195 -16 250 -77 63 -69 70 -95 70 -258 0 -168 -12 -214 -73 -272 -67 -63 -100 -70 -346 -74 -319 -6 -410 10 -477 83 -74 79 -95 204 -86 508 7 232 17 271 84 337 107 103 137 108 647 108 469 0 488 -2 556 -70 42 -42 67 -107 91 -240 22 -119 19 -755 -4 -877 -31 -168 -69 -222 -170 -243 -37 -7 -251 -10 -698 -8 l-644 3 -57 23 c-103 42 -173 134 -205 271 -12 53 -16 159 -20 533 -6 537 2 666 43 759 34 75 112 149 192 181 l57 23 820 5 c903 6 854 2 876 68 22 67 -9 140 -69 163 -32 12 -1247 19 -1577 9z"/>
</g>
</svg>